<?xml version="1.0" encoding="utf-8"?>
<!-- Generator: Adobe Illustrator 25.0.1, SVG Export Plug-In . SVG Version: 6.00 Build 0)  -->
<svg version="1.1" id="Capa_1" xmlns="http://www.w3.org/2000/svg" xmlns:xlink="http://www.w3.org/1999/xlink" x="0px" y="0px"
	 viewBox="0 0 198.9 179.3" style="enable-background:new 0 0 198.9 179.3;" xml:space="preserve">
<style type="text/css">
	.st0{fill:#BCE7D6;}
	.st1{fill:#60A571;}
	.st2{fill:#498960;}
	.st3{fill:#336D4D;}
	.st4{fill:#ED4444;}
	.st5{fill:#C73636;}
	.st6{fill:#333333;}
</style>
<circle class="st0" cx="85.4" cy="85.4" r="85.4"/>
<g>
	<path class="st1" d="M75.1,125.9c-46.2-23.5-57.7,42.5-57.7,42.5S75.2,183.5,75.1,125.9z"/>
</g>
<path class="st2" d="M70.5,159.3c-3.7,3.4-8,6.8-13,10.1c-21.6-12.3-27-26-26.8-41.1c4.5-0.4,7.3-2.1,12-1.7l38-8.8L70.5,159.3z"/>
<g>
	<g>
		<path class="st3" d="M29.6,160.5c-0.7,0-1.4-0.4-1.8-1.1c-0.4-0.9,0.1-2,1-2.4l31.7-12.4c0.9-0.4,2,0.1,2.4,1c0.4,0.9-0.1,2-1,2.4
			l-31.7,12.4C30,160.5,29.8,160.5,29.6,160.5z"/>
		<path class="st3" d="M40.8,166.3c-0.3,0-0.5,0-0.8-0.1c-0.9-0.4-1.3-1.4-0.9-2.4l4.5-10.3l-10.3-4.5c-0.9-0.4-1.3-1.4-0.9-2.4
			c0.4-0.9,1.4-1.3,2.4-0.9l12,5.3c0.4,0.2,0.8,0.5,0.9,1c0.2,0.4,0.2,0.9,0,1.3l-5.3,11.9C42.1,165.7,41.5,166.2,40.8,166.3z"/>
	</g>
</g>
<path class="st2" d="M135.4,68.5l-4.4,14l-25.3,34.7l-36.3-38L78.7,56c0.7-6.2,2.7-12.1,5.2-17.6c8.4-18.7,23.3-32.5,23.3-32.5
	s23.9,22.1,28.2,48.3C136,58.9,136.3,63.6,135.4,68.5z"/>
<path class="st1" d="M135.3,54.2c-5.2,2.5-11,3.9-17.1,3.9c-14.6,0-27.4-7.9-34.3-19.7c8.4-18.8,23.3-32.6,23.3-32.6
	S131.1,27.9,135.3,54.2z"/>
<g>
	<path class="st3" d="M107.2,75.9c-1.5,0-2.8-1.2-2.8-2.8V41c0-1.5,1.2-2.8,2.8-2.8s2.8,1.2,2.8,2.8v32.2
		C109.9,74.7,108.6,75.9,107.2,75.9z"/>
	<path class="st3" d="M107.2,65.3c-0.7,0-1.4-0.3-2-0.8L91.1,50.3c-1-1-1-2.8,0-3.9c1-1,2.8-1,3.9,0l12.2,12.2l12.2-12.2
		c1-1,2.8-1,3.9,0c1,1,1,2.8,0,3.9l-14.1,14.1C108.6,65,107.9,65.3,107.2,65.3z"/>
</g>
<path class="st1" d="M96,135.5l-13.6,7.2c-6.7,3.5-14.2,5.2-21.8,4.7l0,0c-27.1-3.3-50.3-28.8-50.3-28.8S21.8,106.3,38,97.9
	c3.8-2,7.8-3.7,12.1-5.1l29.5-21.4l9.9,38.4L96,135.5z"/>
<path class="st1" d="M87.3,99.7c17.6-74.1-70.4-70.4-70.4-70.4S13.1,117.4,87.3,99.7z"/>
<path class="st3" d="M95.9,111.1c-0.7,0-1.4-0.3-2-0.8L39.7,56c-1-1-1-2.8,0-3.9c1-1,2.8-1,3.9,0l54.3,54.3c1,1,1,2.8,0,3.9
	C97.3,110.9,96.6,111.1,95.9,111.1z"/>
<path class="st3" d="M56.8,72.1H36.9c-1.5,0-2.8-1.2-2.8-2.8s1.2-2.8,2.8-2.8h17.2V49.3c0-1.5,1.2-2.8,2.8-2.8s2.8,1.2,2.8,2.8v19.9
	C59.6,70.8,58.4,72.1,56.8,72.1z"/>
<path class="st3" d="M29.6,121.4c-1.1-0.4-1.9-1.4-1.9-2.6c0-1.5,1.2-2.8,2.8-2.8l51.8,0.2c1.5,0,2.8,1.2,2.8,2.8s-1.3,2.8-2.8,2.8
	l-51.8-0.2C30.1,121.6,29.9,121.5,29.6,121.4z"/>
<path class="st3" d="M42.3,135.8c-0.4-0.1-0.7-0.3-1-0.6c-1-1-1-2.8,0-3.9l12.2-12.2l-12.1-12.2c-1-1-1-2.8,0-3.9c1-1,2.8-1,3.9,0
	l14,14.1c0.5,0.5,0.8,1.2,0.8,2s-0.3,1.4-0.8,2l-14.1,14.1C44.4,135.9,43.3,136.1,42.3,135.8z"/>
<path class="st3" d="M74.5,89.6H48.9c-1.5,0-2.8-1.2-2.8-2.8s1.2-2.8,2.8-2.8h22.8V61.4c0-1.5,1.2-2.8,2.8-2.8s2.8,1.2,2.8,2.8v25.6
	C77.2,88.4,75.9,89.6,74.5,89.6z"/>
<g>
	<path class="st1" d="M115.2,148.7c-36.9-33.6-62.8,18.1-62.8,18.1S101.8,196.9,115.2,148.7z"/>
	<g>
		<path class="st3" d="M66.7,165c-0.7,0-1.4-0.4-1.8-1.1c-0.4-0.9,0.1-2,1-2.4l31.7-12.4c0.9-0.4,2,0.1,2.4,1c0.4,0.9-0.1,2-1,2.4
			l-31.7,12.4C67,165,66.9,165,66.7,165z"/>
		<path class="st3" d="M78,170.7c-0.3,0-0.5,0-0.8-0.1c-0.9-0.4-1.3-1.4-0.9-2.4l4.5-10.3l-10.3-4.5c-0.9-0.4-1.3-1.4-0.9-2.4
			c0.4-0.9,1.4-1.3,2.4-0.9l12,5.3c0.4,0.2,0.8,0.5,0.9,1c0.2,0.4,0.2,0.9,0,1.3l-5.3,12C79.2,170.3,78.6,170.7,78,170.7z"/>
	</g>
</g>
<circle class="st4" cx="127" cy="99.6" r="37.6"/>
<path class="st5" d="M112.1,99.6c0-16.8,11-31,26.3-35.9c-3.6-1.1-7.4-1.8-11.3-1.8c-20.8,0-37.6,16.9-37.6,37.6
	s16.9,37.6,37.6,37.6c3.9,0,7.8-0.6,11.3-1.8C123.2,130.8,112.1,116.5,112.1,99.6z"/>
<circle class="st4" cx="161.2" cy="111.9" r="37.6"/>
<path class="st5" d="M137.3,97c0-16.8,20-25,35.3-21c-3.6-1.1-7.4-1.8-11.3-1.8c-20.8,0-37.6,16.9-37.6,37.6
	c0,20.8,16.9,37.6,37.6,37.6c3.9,0,7.8-0.6,11.3-1.8C169.2,130.8,136.7,117.4,137.3,97z"/>
<path class="st5" d="M179.3,112.8c16.1-12.6,13-22.2,13-22.2s13.4,17.1,1.7,39.7c-6.8,9.9-47.5,4.6-47.5,4.6s-11.3-22.9-5.6-25.7
	C142.4,112.5,158.2,130.1,179.3,112.8z"/>
<circle class="st4" cx="108.9" cy="131.8" r="37.6"/>
<path class="st5" d="M94.1,131.8c0-16.8,11-31,26.3-35.9c-3.6-1.1-7.4-1.8-11.3-1.8c-20.8,0-37.6,16.9-37.6,37.6
	c0,20.8,16.9,37.6,37.6,37.6c3.9,0,7.8-0.6,11.3-1.8C105.1,163,94.1,148.6,94.1,131.8z"/>
<g>
	<circle class="st6" cx="119.4" cy="133.4" r="10"/>
	<ellipse class="st6" cx="160.5" cy="91.1" rx="11.7" ry="6"/>
</g>
<circle class="st4" cx="165.7" cy="146" r="33.2"/>
<path class="st5" d="M160.4,158.1c-13.6-6-21.1-20-19.6-34c-2.2,2.5-4,5.4-5.5,8.6c-7.4,16.8,0.2,36.4,16.9,43.8
	c16.8,7.4,36.4-0.2,43.8-16.9c1.4-3.2,2.3-6.5,2.7-9.8C189.5,160.3,174,164.1,160.4,158.1z"/>
<g>
	<ellipse transform="matrix(0.2658 -0.964 0.964 0.2658 5.1534 260.5256)" class="st6" cx="173.6" cy="126.9" rx="6" ry="11.7"/>
</g>
</svg>
