<?xml version="1.0" encoding="utf-8"?>
<!-- Generator: Adobe Illustrator 25.0.1, SVG Export Plug-In . SVG Version: 6.00 Build 0)  -->
<svg version="1.1" id="Capa_1" xmlns="http://www.w3.org/2000/svg" xmlns:xlink="http://www.w3.org/1999/xlink" x="0px" y="0px"
	 viewBox="0 0 199.8 179.9" style="enable-background:new 0 0 199.8 179.9;" xml:space="preserve">
<style type="text/css">
	.st0{fill:none;stroke:#7DD84E;stroke-miterlimit:10;}
	.st1{fill:#7DD84E;stroke:#7DD84E;stroke-miterlimit:10;}
	.st2{fill:#7DD84E;stroke:#7DD84E;stroke-width:2;stroke-miterlimit:10;}
	.st3{fill:#302A21;}
	.st4{fill:#BCE7D6;}
	.st5{fill:#302A21;stroke:#302A21;stroke-width:2;stroke-miterlimit:10;}
	.st6{fill:#FFD24F;}
	.st7{fill:#FFBE1E;}
	.st8{fill:#FFE1B2;}
	.st9{fill:#FFD7A3;}
	.st10{fill:#FDC88E;}
	.st11{fill:#FF6953;}
	.st12{fill:#E95F43;}
	.st13{fill:#A7795E;}
	.st14{fill:#543D38;}
	.st15{fill:#C55F54;}
	.st16{fill:#0A0A0A;}
</style>
<g>
	<g>
		<line class="st0" x1="160.7" y1="102.6" x2="160.7" y2="102.6"/>
		<line class="st0" x1="160.7" y1="102.6" x2="160.7" y2="102.6"/>
		<path class="st1" d="M160.7,124v-21.4v-0.1c0,0,6.5-11,13.4-1.4c0,0-3.5,7.1-13.4,1.4"/>
		<path class="st1" d="M160.6,124v-21.4v-0.1c0,0-6.5-11-13.4-1.4c0,0,3.5,7.1,13.4,1.4"/>
	</g>
	<line class="st2" x1="160.6" y1="103.1" x2="160.6" y2="124"/>
</g>
<path class="st3" d="M173.3,116.9c-1-1.9-3.1-3-5.4-3c-2.3,0-4.3,1.2-5.3,3.1l-12.8,23.7l-18,28.2l-7.1,9.9l75.1,0.5L173.3,116.9z"
	/>
<path class="st4" d="M89.7,10.4c43.6,0,48.1,25.5,53.1,65.4c1.2,10-2.6,20-10.3,26.6c-42.5,35.8,40.2,27.3,32.5,39.9
	c-15.8,25.8-71.3,36.8-103.7,36.8C35.3,183,0,149.7,0,100.1S40.2,10.4,89.7,10.4z"/>
<path class="st5" d="M131.7,139l12.9-26.2c1.8-3.7,7-3.7,8.9-0.1l13.6,26.3H131.7z"/>
<g>
	<g>
		<path class="st6" d="M140.2,29.7c-3.3-15.5-12.7-26-16.9-28.1c-9.5-4.8-12.7,2.8-16.9,2.8S99-3.2,89.5,1.6
			c-4.2,2.1-13.6,12.7-16.9,28.1c-3.3,15.5,33.8,2.8,33.8,2.8S143.5,45.2,140.2,29.7z"/>
	</g>
	<g>
		<ellipse class="st7" cx="106.4" cy="52.1" rx="64.7" ry="23.9"/>
	</g>
	<g>
		<path class="st8" d="M68.3,69.4c-4.2-1.1-7,1.2-7,5.6c0,5.9,5.7,20.2,11.6,11.3C78.9,77.3,68.3,69.4,68.3,69.4z"/>
	</g>
	<g>
		<path class="st8" d="M143.8,69.4c4.6-1.1,7.6,1.2,7.6,5.6c0,5.9-6.2,20.2-12.7,11.3S143.8,69.4,143.8,69.4z"/>
	</g>
	<g>
		<path class="st9" d="M75.5,120.6c6.3-4.1,5.6-16.1,5.6-18.9h50.7c0,2.8-0.8,14.9,5.5,18.9l-30.8,34.6L75.5,120.6z"/>
	</g>
	<g>
		<path class="st10" d="M126.1,132.6l11.1-12c-6.3-4.1-5.5-16.1-5.5-18.9H81.1C84.7,112.1,108.8,130,126.1,132.6z"/>
	</g>
	<g>
		<path class="st11" d="M171.2,179.9c4.7,0,8.4-3.8,8.4-8.4v-16.8c0-12.4-9.7-25.6-21.4-29.4l-17.6-5.6c-9.5,7.2-23,17.1-34.1,17.1
			s-24.7-9.9-34.1-17.1l-17.6,5.6c-11.8,3.8-21.4,17-21.4,29.4v16.8c0,4.7,3.8,8.4,8.4,8.4H171.2z"/>
	</g>
	<g>
		<path class="st12" d="M179.4,173.2h-4.4v-5.9h4.6V163h-4.6v-5.9h4.6v-2.4c0-0.6,0-1.3-0.1-1.9h-4.5v-5.9h3.3
			c-0.4-1.5-1-2.9-1.7-4.3h-1.6v-3.1c-1.6-2.6-3.5-5-5.7-7.1h-4.6v-3.7c-2.1-1.4-4.3-2.5-6.7-3.3l-10.1-3.2h-3.7v-1.2l-3.8-1.2
			c-0.2,0.1-0.3,0.2-0.5,0.4v2h-2.7c-2.4,1.8-4.9,3.6-7.5,5.3v4.9h-5.9v-1.2c-5,2.8-10.1,4.9-14.8,5.6h0.3v5.9h-5.9v-5.9h0.3
			c-4.8-0.6-9.9-2.8-14.8-5.6v1.2H83v-4.9c-2.6-1.8-5.2-3.6-7.5-5.3h-2.7v-2c-0.2-0.1-0.3-0.2-0.5-0.4l-3.8,1.2v1.2h-3.7l-10.1,3.2
			c-2.3,0.7-4.6,1.9-6.7,3.3v3.7h-4.6c-2.2,2.1-4.1,4.5-5.7,7.1v3.1h-1.6c-0.7,1.4-1.2,2.8-1.7,4.3h3.3v5.9h-4.5
			c-0.1,0.6-0.1,1.3-0.1,1.9v2.4h4.6v5.9h-4.6v4.3h4.6v5.9h-4.4c0.4,1.7,1.2,3.2,2.4,4.3h2v1.4c1.2,0.6,2.5,1,3.9,1h0.4v-2.4H48v2.4
			h4.3v-2.4h5.9v2.4h4.3v-2.4h5.9v2.4h4.3v-2.4h5.9v2.4H83v-2.4h5.9v2.4h4.3v-2.4h5.9v2.4h4.3v-2.4h5.9v2.4h4.3v-2.4h5.9v2.4h4.3
			v-2.4h5.9v2.4h4.3v-2.4h5.9v2.4h4.3v-2.4h5.9v2.4h4.3v-2.4h5.9v2.4h4.3v-2.4h5.9v2.4h0.4c1.4,0,2.7-0.4,3.9-1v-1.4h2
			C178.2,176.4,179.1,174.9,179.4,173.2z M48,173.2h-5.9v-5.9H48V173.2z M48,163h-5.9v-5.9H48V163z M48,152.8h-5.9v-5.9H48V152.8z
			 M48,142.5h-5.9v-5.9H48V142.5z M58.2,173.2h-5.9v-5.9h5.9V173.2z M58.2,163h-5.9v-5.9h5.9V163z M58.2,152.8h-5.9v-5.9h5.9V152.8z
			 M58.2,142.5h-5.9v-5.9h5.9V142.5z M58.2,132.3h-5.9v-5.9h5.9V132.3z M68.5,173.2h-5.9v-5.9h5.9V173.2z M68.5,163h-5.9v-5.9h5.9
			V163z M68.5,152.8h-5.9v-5.9h5.9V152.8z M68.5,142.5h-5.9v-5.9h5.9V142.5z M68.5,132.3h-5.9v-5.9h5.9V132.3z M78.7,173.2h-5.9
			v-5.9h5.9V173.2z M78.7,163h-5.9v-5.9h5.9V163z M78.7,152.8h-5.9v-5.9h5.9V152.8z M78.7,142.5h-5.9v-5.9h5.9V142.5z M78.7,132.3
			h-5.9v-5.9h5.9V132.3z M88.9,173.2H83v-5.9h5.9V173.2z M88.9,163H83v-5.9h5.9V163z M88.9,152.8H83v-5.9h5.9V152.8z M88.9,142.5H83
			v-5.9h5.9V142.5z M99.1,173.2h-5.9v-5.9h5.9L99.1,173.2L99.1,173.2z M99.1,163h-5.9v-5.9h5.9L99.1,163L99.1,163z M99.1,152.8h-5.9
			v-5.9h5.9L99.1,152.8L99.1,152.8z M99.1,142.5h-5.9v-5.9h5.9L99.1,142.5L99.1,142.5z M109.4,173.2h-5.9v-5.9h5.9V173.2z
			 M109.4,163h-5.9v-5.9h5.9V163z M109.4,152.8h-5.9v-5.9h5.9V152.8z M119.6,173.2h-5.9v-5.9h5.9V173.2z M119.6,163h-5.9v-5.9h5.9
			V163z M119.6,152.8h-5.9v-5.9h5.9V152.8z M119.6,142.5h-5.9v-5.9h5.9V142.5z M129.8,173.2h-5.9v-5.9h5.9V173.2z M129.8,163h-5.9
			v-5.9h5.9V163z M129.8,152.8h-5.9v-5.9h5.9V152.8z M129.8,142.5h-5.9v-5.9h5.9V142.5z M140.1,173.2h-5.9v-5.9h5.9V173.2z
			 M140.1,163h-5.9v-5.9h5.9V163z M140.1,152.8h-5.9v-5.9h5.9V152.8z M140.1,142.5h-5.9v-5.9h5.9V142.5z M140.1,132.3h-5.9v-5.9h5.9
			V132.3z M150.3,173.2h-5.9v-5.9h5.9V173.2z M150.3,163h-5.9v-5.9h5.9V163z M150.3,152.8h-5.9v-5.9h5.9V152.8z M150.3,142.5h-5.9
			v-5.9h5.9V142.5z M150.3,132.3h-5.9v-5.9h5.9V132.3z M160.5,173.2h-5.9v-5.9h5.9V173.2z M160.5,163h-5.9v-5.9h5.9V163z
			 M160.5,152.8h-5.9v-5.9h5.9V152.8z M160.5,142.5h-5.9v-5.9h5.9V142.5z M160.5,132.3h-5.9v-5.9h5.9V132.3z M170.7,173.2h-5.9v-5.9
			h5.9V173.2z M170.7,163h-5.9v-5.9h5.9V163z M170.7,152.8h-5.9v-5.9h5.9V152.8z M170.7,142.5h-5.9v-5.9h5.9V142.5z"/>
	</g>
	<g>
		<path class="st7" d="M106.4,136.8l-11.7,11.7c-1.2,1.2-3.2,1.1-4.3-0.3l-20.6-28.3l6.6-6.6c1.1-1.1,2.8-1.1,3.9-0.1L106.4,136.8z"
			/>
	</g>
	<g>
		<path class="st7" d="M106.4,136.8l11.7,11.7c1.2,1.2,3.2,1.1,4.3-0.3l20.6-28.3l-6.6-6.6c-1.1-1.1-2.8-1.1-3.9-0.1L106.4,136.8z"
			/>
	</g>
	<g>
		<path class="st8" d="M68.8,50.4c-0.7,4-0.7,8.8-0.7,14.5c0,22.5,12.6,50.7,38.3,50.7s38.3-28.1,38.3-50.7c0-5.7,0-10.5-0.7-14.5
			c-10.3-3.5-23.4-5.6-37.7-5.6S79.1,46.9,68.8,50.4z"/>
	</g>
	<g>
		<path class="st13" d="M144.9,54.9c-2.3-2.9-4.7-5.9-4.7-5.9v2.8c0.7,25.5-8.4,36.6-8.4,36.6l-11.6,1.3c-9,1-18.1,1-27.1,0
			l-11.6-1.3c0,0-9.1-11.1-8.4-36.6v-2.8c0,0-2.4,3-4.7,5.9c-0.6,2.5-1.5,5.2-1.5,8.2c0,22.5,13.5,55,39.7,55s39.1-32.5,39.1-55
			C145.8,60.2,145.5,57.4,144.9,54.9z M98.3,95.2h16.8c2.3,0,4.3,1.4,5.1,3.4c-3.1,1.4-7.6,7.6-13,7.6c-5.7,0-10.8-6.4-13.9-7.9
			C94.3,96.5,96.1,95.2,98.3,95.2z"/>
	</g>
	<g>
		<path class="st14" d="M107.9,92.6c0-3.7-3.6-4.6-6-3.7c-4.4,1.7-9.1,6.3-13.2,3.4c0,0,1.4,5.9,3.8,5.9
			C97.3,98.3,107.9,99,107.9,92.6z"/>
	</g>
	<g>
		<path class="st14" d="M106.8,92.6c0-3.7,3.6-4.6,6-3.7c4.4,1.7,9.1,6.3,13.2,3.4c0,0-1.4,5.9-3.8,5.9
			C117.4,98.3,106.8,99,106.8,92.6z"/>
	</g>
	<g>
		<path class="st15" d="M154.3,123.7l-11.3-3.6v34.6c0,1.3-0.9,2.4-2.1,2.7c-9.5,2.3-21.5,3.8-34.5,3.8s-25-1.4-34.5-3.8
			c-1.3-0.3-2.1-1.4-2.1-2.7v-34.6l-11.3,3.6v56.2h95.7L154.3,123.7L154.3,123.7z"/>
	</g>
	<g>
		<path class="st14" d="M67.2,69.8l7.6,1.4c0,0,3-16.6,4.6-23.6c-4.2,0.8-8.1,1.8-11.6,3c-0.7,4-0.7,8.8-0.7,14.5
			C67,66.6,67.1,68.2,67.2,69.8z"/>
	</g>
	<g>
		<path class="st14" d="M145.6,69.8l-7.6,1.4c0,0-3-16.6-4.6-23.6c4.2,0.8,8.1,1.8,11.6,3c0.7,4,0.7,8.8,0.7,14.5
			C145.8,66.6,145.8,68.2,145.6,69.8z"/>
	</g>
	<g>
		<path class="st14" d="M123,54.5l6.8-7.7c-7.2-1.3-15-2-23.3-2c-5,0-9.9,0.3-14.6,0.8C96.3,45.3,113.6,47.6,123,54.5z"/>
	</g>
</g>
<path class="st16" d="M122.9,70.5c-1.1,0-2.1-0.9-2.1-2.1v-3.4c0-1.1,0.9-2.1,2.1-2.1c1.1,0,2.1,0.9,2.1,2.1v3.4
	C125,69.6,124,70.5,122.9,70.5z"/>
<path class="st16" d="M91.9,70.5c-1.1,0-2.1-0.9-2.1-2.1v-3.4c0-1.1,0.9-2.1,2.1-2.1c1.1,0,2.1,0.9,2.1,2.1v3.4
	C93.9,69.6,93,70.5,91.9,70.5z"/>
</svg>
