<?xml version="1.0" encoding="utf-8"?>
<!-- Generator: Adobe Illustrator 25.0.1, SVG Export Plug-In . SVG Version: 6.00 Build 0)  -->
<svg version="1.1" id="Capa_1" xmlns="http://www.w3.org/2000/svg" xmlns:xlink="http://www.w3.org/1999/xlink" x="0px" y="0px"
	 viewBox="0 0 199.3 180" style="enable-background:new 0 0 199.3 180;" xml:space="preserve">
<style type="text/css">
	.st0{fill:none;stroke:#161616;stroke-width:2;stroke-linecap:round;stroke-miterlimit:10;}
	.st1{fill:#BCE7D6;}
	.st2{fill:#FFDE55;}
	.st3{fill:#FFCD00;}
	.st4{fill:#FFF4C7;}
	.st5{fill:#57565C;}
	.st6{opacity:0.61;fill:#161616;enable-background:new    ;}
	.st7{opacity:0.61;fill:#050505;enable-background:new    ;}
	.st8{fill:none;stroke:#161616;stroke-width:2.5;stroke-linecap:round;stroke-miterlimit:10;}
</style>
<circle class="st0" cx="59.2" cy="157.7" r="2.2"/>
<path class="st1" d="M199.3,85.7c0,47.3-36.8,75.9-84.1,77.8c-28.2,1.1-28.8,2-41.8-6c-24.5-15.1-45.3-40.8-45.3-71.8
	C28.1,38.3,66.5,0,113.8,0S199.3,38.3,199.3,85.7z"/>
<path class="st2" d="M131.6,48.8c-4.7-4.7-12.6-4.8-19.7-1c-3.2,1.7-6.9,1.9-10.3,0.8c-23.2-8-53.1,0-75.4,22.3S-4,123.1,4,146.2
	c1.1,3.4,0.9,7.1-0.8,10.3c-3.9,7.1-3.7,15,1,19.7s12.6,4.8,19.7,1c3.2-1.7,6.9-1.9,10.3-0.8c23.2,8,53.1,0,75.4-22.3
	s30.2-52.1,22.3-75.3c-1.2-3.4-0.9-7.1,0.8-10.3C136.5,61.4,136.2,53.5,131.6,48.8z"/>
<path class="st3" d="M109.5,154.3c22.3-22.3,30.2-52.2,22.3-75.4c-1.2-3.4-0.9-7.1,0.8-10.3c2-3.8,3-7.9,2.7-11.5
	c-25.4,0.9-62.3,10.5-75.6,55.6c-8.4,28.2-18.6,48.8-28,63.3c0.9,0.1,1.7,0.3,2.6,0.6C57.4,184.4,87.4,176.4,109.5,154.3z"/>
<circle class="st3" cx="135.4" cy="129.1" r="50.9"/>
<path class="st2" d="M135.4,78.3c28.1,0-9.9,22.8-9.9,50.9s38,50.9,9.9,50.9s-50.9-22.8-50.9-50.9S107.3,78.3,135.4,78.3z"/>
<path class="st4" d="M135.4,165.7c-20.2,0-36.6-16.4-36.6-36.6c0-20.2,16.4-36.6,36.6-36.6S172,109,172,129.1
	C172,149.4,155.4,165.7,135.4,165.7z"/>
<g>
	<path class="st2" d="M121.4,95.3L121.4,95.3l10.8,26.2c1.1,2.8,5.1,2.8,6.3,0l10.8-26.2C140.7,91.8,130.6,91.5,121.4,95.3z"/>
	<path class="st2" d="M169.2,115.2L169.2,115.2L143,126c-2.8,1.1-2.8,5.1,0,6.3l26.2,10.8C172.8,134.5,173,124.4,169.2,115.2z"/>
	<path class="st2" d="M149.3,162.9L149.3,162.9l-10.8-26.1c-1.1-2.8-5.1-2.8-6.3,0L121.3,163C129.9,166.5,140,166.8,149.3,162.9z"/>
	<path class="st2" d="M101.6,143.1L101.6,143.1l26.2-10.8c2.8-1.1,2.8-5.1,0-6.3l-26.2-10.8C98,123.8,97.7,133.8,101.6,143.1z"/>
</g>
<g>
	<path class="st5" d="M81.7,84c-1.1,1.1-2.9,1.1-4,0l-3.3-3.3c-1.1-1.1-1.1-2.9,0-4s2.9-1.1,4,0l3.3,3.3C82.7,81.1,82.7,83,81.7,84z
		"/>
	<path class="st5" d="M38.9,126.7c-1.1,1.1-2.9,1.1-4,0l-3.3-3.3c-1.1-1.1-1.1-2.9,0-4c1.1-1.1,2.9-1.1,4,0l3.3,3.3
		C40,123.8,40,125.6,38.9,126.7z"/>
	<path class="st5" d="M62.4,107.4c-2.6,2.6-5.9,4.3-9.8,4.8c-1.5,0.2-3-0.9-3.2-2.5c-0.2-1.5,0.9-3,2.5-3.2c5.1-0.6,9.1-4.6,9.7-9.7
		c0.2-1.5,1.6-2.7,3.2-2.5c1.5,0.2,2.7,1.6,2.5,3.2C66.6,101.5,64.9,104.8,62.4,107.4z"/>
</g>
<path class="st6" d="M161.8,57.4H148c-1.1,0-1.8-0.9-1.8-1.8c0-1.1,0.9-1.8,1.8-1.8h13.8c1.1,0,1.8,0.9,1.8,1.8
	C163.7,56.5,163,57.4,161.8,57.4z"/>
<path class="st7" d="M155.1,64.2c-1.1,0-1.8-0.9-1.8-1.8V48.6c0-1.1,0.9-1.8,1.8-1.8c1.1,0,1.8,0.9,1.8,1.8v13.8
	C156.9,63.4,156.1,64.2,155.1,64.2z"/>
<path class="st6" d="M33.9,174.8H23.6c-0.8,0-1.3-0.6-1.3-1.3c0-0.8,0.6-1.3,1.3-1.3h10.3c0.8,0,1.3,0.6,1.3,1.3
	C35.4,174.2,34.7,174.8,33.9,174.8z"/>
<path class="st7" d="M28.9,180c-0.8,0-1.3-0.6-1.3-1.3v-10.3c0-0.8,0.6-1.3,1.3-1.3c0.8,0,1.3,0.6,1.3,1.3v10.3
	C30.3,179.3,29.6,180,28.9,180z"/>
<circle class="st8" cx="165.2" cy="69" r="4.1"/>
<circle class="st8" cx="5.4" cy="74" r="4.1"/>
<circle class="st0" cx="16.8" cy="78.7" r="2.2"/>
<circle class="st0" cx="20.9" cy="70" r="2.8"/>
</svg>
