<?xml version="1.0" encoding="utf-8"?>
<!-- Generator: Adobe Illustrator 25.0.1, SVG Export Plug-In . SVG Version: 6.00 Build 0)  -->
<svg version="1.1" id="레이어_1" xmlns="http://www.w3.org/2000/svg" xmlns:xlink="http://www.w3.org/1999/xlink" x="0px"
	 y="0px" viewBox="0 0 200.2 180" style="enable-background:new 0 0 200.2 180;" xml:space="preserve">
<style type="text/css">
	.st0{fill:#BCE7D6;}
	.st1{fill:#FFC73B;}
	.st2{fill:#EFB025;}
	.st3{fill:#FF4440;}
	.st4{fill:#EA2F2F;}
	.st5{fill:#939393;}
	.st6{fill:#C11A5E;}
	.st7{fill:#FFE566;}
</style>
<circle class="st0" cx="115.2" cy="85.4" r="85"/>
<path class="st1" d="M116,180H14.3c-2.6,0-4.8-2.2-4.8-4.8V97.8h111.3v77.5C120.8,177.9,118.7,180,116,180z"/>
<path class="st2" d="M9.4,97.9h111.3V114H9.4V97.9z"/>
<path class="st1" d="M130.3,81.1V101c0,2.1-1.7,3.8-3.8,3.8H3.8c-2.1,0-3.8-1.7-3.8-3.8V81.1c0-2.1,1.7-3.8,3.8-3.8h122.5
	C128.5,77.3,130.3,78.9,130.3,81.1z"/>
<path class="st2" d="M60.7,86.4c-0.9,1-1.7,2-2.4,3c-3.1,3.8-5.8,7.7-8.3,11.7c-0.8,1.2-1.5,2.5-2.3,3.8H21.3
	c1.6-3.5,3.2-6.9,5.1-10.2c3.3-6,7.1-11.9,11.4-17.4c1-1.3,2-2.6,3.1-3.9c0.6-0.8,1.3-1.6,1.9-2.3c2.4,2.1,4.8,4.1,7.3,6.2
	c0.3,0.3,0.8,0.6,1.1,1c2.9,2.4,5.7,4.9,8.6,7.3C60,85.8,60.3,86.1,60.7,86.4z"/>
<path class="st2" d="M100.1,104.9H73.7c-0.7-1.3-1.5-2.5-2.3-3.8c-2.5-4-5.2-8-8.3-11.7c-0.8-1-1.7-2-2.4-3c0.3-0.3,0.7-0.6,1-0.9
	c2.9-2.4,5.7-4.9,8.6-7.3c0.3-0.3,0.8-0.6,1.1-1c2.4-2.1,4.8-4.1,7.3-6.2c0.7,0.8,1.3,1.5,1.9,2.3c1,1.3,2.1,2.6,3.1,3.9
	c4.2,5.5,8,11.4,11.4,17.4C96.9,98,98.6,101.4,100.1,104.9z"/>
<g>
	<path class="st3" d="M65.1,86.4c-0.9,1-1.7,2-2.4,3c-3.1,3.8-5.8,7.7-8.3,11.7c-8,12.9-13.2,27.3-15.4,42.4
		c-3.3-4.4-6.4-9.2-9.2-14.3c-4.9,3.1-9.6,6.8-14.3,10.8c2.4-16,7.5-31.4,15.3-45.5C35,87.1,39.8,80,45.4,73.3
		c0.6-0.8,1.3-1.6,1.9-2.3c2.8,2.4,5.6,4.8,8.4,7.2c2.9,2.4,5.7,4.9,8.6,7.3C64.4,85.8,64.8,86.1,65.1,86.4z"/>
	<path class="st3" d="M114.7,140c-4.5-4.1-9.4-7.7-14.3-10.8c-2.8,5.1-5.9,9.9-9.2,14.3c-2.2-15-7.5-29.5-15.4-42.4
		c-2.5-4-5.2-8-8.3-11.7c-0.8-1-1.7-2-2.4-3c0.3-0.3,0.7-0.6,1-0.9c2.9-2.4,5.7-4.9,8.6-7.3c2.8-2.4,5.6-4.8,8.4-7.2
		c0.7,0.8,1.3,1.5,1.9,2.3c5.5,6.6,10.3,13.8,14.5,21.3C107.2,108.7,112.4,124,114.7,140z"/>
	<path class="st3" d="M54.7,86.4h20.7v18.4H54.7V86.4z"/>
</g>
<path class="st4" d="M99.5,94.7l-23.6,6.5c-2.5-4-5.2-8-8.3-11.7l-1.5-3.8l-1-2.8l9.6-4.5L85,73.3C90.5,80,95.4,87.1,99.5,94.7z"/>
<path class="st4" d="M65.1,82.8l-1,2.8l-1.5,3.8c-3.1,3.8-5.8,7.7-8.3,11.7l-23.6-6.5c4.1-7.5,8.9-14.7,14.5-21.3l10.3,4.9
	L65.1,82.8z"/>
<path class="st3" d="M102.8,51.4L65.1,69.2l7.3,19.3l40.2-11c5.2-1.4,8.1-7.1,6.2-12.2l-3.3-8.8C113.6,51.5,107.7,49.1,102.8,51.4z"
	/>
<path class="st3" d="M27.5,51.4l37.7,17.8L58,88.5L17.8,77.5c-5.2-1.4-8.1-7.1-6.2-12.2l3.3-8.8C16.7,51.5,22.6,49.1,27.5,51.4z"/>
<path class="st4" d="M74.1,77c-0.7,0-1.3-0.3-1.7-1c-0.6-1-0.3-2.3,0.6-2.9c0.3-0.2,7.1-4.5,14.9-7.6c11.2-4.5,18.7-4.3,22.3,0.7
	c0.7,1,0.4,2.2-0.5,2.9c-1,0.7-2.3,0.4-2.9-0.5c-4.8-6.7-24.8,3.8-31.5,8C74.9,76.8,74.5,77,74.1,77z"/>
<path class="st4" d="M56,77c-0.3,0-0.8-0.1-1.1-0.3c-6.6-4.2-26.7-14.8-31.5-8c-0.7,1-1.9,1.1-2.9,0.5c-1-0.7-1.1-1.9-0.5-2.9
	c3.6-5,11-5.2,22.3-0.7c7.8,3.1,14.6,7.4,14.9,7.6c1,0.6,1.2,1.9,0.6,2.9C57.3,76.7,56.7,77,56,77z"/>
<path class="st4" d="M71.1,62.6H59.3c-3.2,0-5.9,2.6-5.9,5.9v17.1c0,3.2,2.6,5.9,5.9,5.9h11.8c3.2,0,5.9-2.6,5.9-5.9V68.3
	C76.9,65.1,74.3,62.6,71.1,62.6z"/>
<path class="st4" d="M54.7,104.9h20.7v9.1H54.7V104.9z"/>
<g>
	<circle class="st5" cx="124.1" cy="46.1" r="3.3"/>
	<circle class="st5" cx="129.1" cy="19.4" r="7.1"/>
</g>
<g>
	<circle class="st5" cx="149.6" cy="71" r="2.5"/>
	<path class="st5" d="M157,70l33.2-7.5c0,0,2.8-11.7-6.5-16.7l-28.1,20.5L157,70z"/>
</g>
<g>
	<circle class="st6" cx="138.2" cy="57.7" r="5.1"/>
	<path class="st6" d="M142.1,47.8l21.4-43.6c0,0,14.1-0.2,21.1,14.4L146.8,51L142.1,47.8z"/>
</g>
<g>
	<polygon class="st3" points="75.5,104.9 54.7,104.9 54.7,111.1 75.5,124.1 	"/>
	<polygon class="st3" points="54.7,144.3 54.7,153.3 75.5,166.4 75.5,157.4 	"/>
	<polygon class="st3" points="75.5,136.2 54.7,123.1 54.7,132.4 75.5,145.4 	"/>
	<polygon class="st3" points="54.7,180 75.5,180 75.5,178.4 54.7,165.4 	"/>
	<polygon class="st7" points="75.5,124.1 54.7,111.1 54.7,123.1 75.5,136.2 	"/>
	<polygon class="st7" points="75.5,145.4 54.7,132.4 54.7,144.3 75.5,157.4 	"/>
	<polygon class="st7" points="54.7,165.4 75.5,178.4 75.5,166.4 54.7,153.3 	"/>
</g>
</svg>
